<svg xmlns="http://www.w3.org/2000/svg" viewBox="0 0 480 320">
  <defs>
    <linearGradient id="bg" x1="0" y1="0" x2="1" y2="1">
      <stop offset="0" stop-color="#fffbeb"/>
      <stop offset="1" stop-color="#fed7aa"/>
    </linearGradient>
    <filter id="shadow" x="-20%" y="-20%" width="140%" height="140%">
      <feDropShadow dx="0" dy="14" stdDeviation="12" flood-color="#5b2b07" flood-opacity=".22"/>
    </filter>
  </defs>
  <rect width="480" height="320" fill="url(#bg)"/>
  <path d="M0 228c80-42 150-16 218-56 92-54 166-96 262-70v218H0z" fill="#fff7ed" opacity=".34"/>
  <g filter="url(#shadow)">
    <path d="M96 170c16-70 72-94 126-60-34 16-56 44-60 86-30 10-58 0-66-26z" fill="#f59e0b"/>
    <path d="M384 170c-16-70-72-94-126-60 34 16 56 44 60 86 30 10 58 0 66-26z" fill="#d97706"/>
    <path d="M154 190c24-58 148-58 172 0-40 34-132 34-172 0z" fill="#fbbf24"/>
    <path d="M188 152c24 18 82 18 104 0" stroke="#b45309" stroke-width="10" stroke-linecap="round" fill="none"/>
  </g>
</svg>
