<svg xmlns="http://www.w3.org/2000/svg" viewBox="0 0 720 540">
  <defs>
    <linearGradient id="bg" x1="0" y1="0" x2="1" y2="1">
      <stop offset="0" stop-color="#fff6ee"/>
      <stop offset="1" stop-color="#ffd5a5"/>
    </linearGradient>
    <linearGradient id="glass" x1="0" y1="0" x2="0" y2="1">
      <stop offset="0" stop-color="#ffffff" stop-opacity=".92"/>
      <stop offset="1" stop-color="#fff3e0" stop-opacity=".86"/>
    </linearGradient>
    <filter id="shadow" x="-20%" y="-20%" width="140%" height="140%">
      <feDropShadow dx="0" dy="18" stdDeviation="18" flood-color="#8a3a10" flood-opacity=".22"/>
    </filter>
  </defs>
  <rect width="720" height="540" fill="url(#bg)"/>
  <path d="M0 360c150-70 264-36 382-98 136-72 204-136 338-120v398H0z" fill="#fff5eb" opacity=".45"/>
  <g filter="url(#shadow)">
    <rect x="130" y="112" width="460" height="220" rx="26" fill="url(#glass)"/>
    <rect x="150" y="140" width="420" height="148" rx="18" fill="#ffffff" opacity=".95"/>
    <rect x="158" y="296" width="404" height="24" rx="12" fill="#8c3512"/>
    <rect x="210" y="182" width="82" height="72" rx="12" fill="#ffedb7"/>
    <path d="M218 230c8-34 26-54 58-52 30 2 46 20 52 52z" fill="#d97706"/>
    <path d="M216 230h114v18c0 12-10 22-22 22h-70c-12 0-22-10-22-22z" fill="#8c3512"/>
    <path d="M236 194c8 8 8 18 0 26M268 186c8 10 8 20 0 28M296 194c8 8 8 18 0 26" stroke="#fff2cc" stroke-width="6" stroke-linecap="round"/>
    <rect x="332" y="176" width="88" height="84" rx="14" fill="#fff0df"/>
    <path d="M342 198c10-44 46-62 80-34-22 14-34 34-36 56-26 10-40 2-44-22z" fill="#f59e0b"/>
    <path d="M410 198c-10-44-46-62-80-34 22 14 34 34 36 56 26 10 40 2 44-22z" fill="#de7d00"/>
    <path d="M362 224c18-28 56-28 74 0-18 16-56 16-74 0z" fill="#ffc034"/>
    <rect x="452" y="170" width="86" height="92" rx="14" fill="#fff4ed"/>
    <rect x="462" y="212" width="66" height="36" rx="8" fill="#8c3512"/>
    <path d="M462 198c18 14 34-10 52 0 18 10 30-10 44 0v22h-96z" fill="#f1a0cf"/>
    <path d="M462 188h96c0 14-8 24-22 24h-52c-14 0-22-10-22-24z" fill="#ffe88c"/>
    <circle cx="480" cy="176" r="6" fill="#f34a47"/>
    <circle cx="500" cy="172" r="6" fill="#f34a47"/>
    <circle cx="520" cy="176" r="6" fill="#f34a47"/>
    <rect x="196" y="342" width="328" height="110" rx="32" fill="#8c3512"/>
    <path d="M196 342h328v66c-24 8-42 14-68 6-26-8-42-22-68-20-26 2-42 22-72 20-30-2-46-18-64-16-20 2-34 10-56 20z" fill="#f0b16e" opacity=".28"/>
  </g>
</svg>
