<svg xmlns="http://www.w3.org/2000/svg" viewBox="0 0 480 320">
  <defs>
    <linearGradient id="bg" x1="0" y1="0" x2="1" y2="1">
      <stop offset="0" stop-color="#fff1f2"/>
      <stop offset="1" stop-color="#fed7aa"/>
    </linearGradient>
    <filter id="shadow" x="-20%" y="-20%" width="140%" height="140%">
      <feDropShadow dx="0" dy="14" stdDeviation="12" flood-color="#5b1a0c" flood-opacity=".22"/>
    </filter>
  </defs>
  <rect width="480" height="320" fill="url(#bg)"/>
  <path d="M0 230c90-16 174-62 260-38 88 24 138 78 220 72v56H0z" fill="#fff7ed" opacity=".4"/>
  <g filter="url(#shadow)">
    <rect x="116" y="126" width="248" height="106" rx="18" fill="#7c2d12"/>
    <rect x="116" y="108" width="248" height="52" rx="18" fill="#fde68a"/>
    <path d="M116 148c34 22 66-22 100 0s68-22 102 0c24 14 36 2 46-4v34H116z" fill="#f9a8d4"/>
    <circle cx="176" cy="98" r="10" fill="#ef4444"/>
    <circle cx="240" cy="92" r="10" fill="#ef4444"/>
    <circle cx="304" cy="98" r="10" fill="#ef4444"/>
  </g>
</svg>
