<svg xmlns="http://www.w3.org/2000/svg" viewBox="0 0 640 360">
  <defs>
    <linearGradient id="bg" x1="0" y1="0" x2="1" y2="1">
      <stop offset="0" stop-color="#7c2d12"/>
      <stop offset=".58" stop-color="#ea580c"/>
      <stop offset="1" stop-color="#fff7ed"/>
    </linearGradient>
    <linearGradient id="shine" x1="0" y1="0" x2="1" y2="1">
      <stop offset="0" stop-color="#fff7ed" stop-opacity=".55"/>
      <stop offset="1" stop-color="#fff7ed" stop-opacity="0"/>
    </linearGradient>
  </defs>
  <rect width="640" height="360" rx="36" fill="url(#bg)"/>
  <circle cx="504" cy="68" r="140" fill="#fed7aa" opacity=".22"/>
  <circle cx="68" cy="310" r="124" fill="#431407" opacity=".24"/>
  <text x="44" y="78" fill="#fff7ed" font-family="Arial, sans-serif" font-size="36" font-weight="800">Bakery Glow</text>
  <text x="46" y="112" fill="#ffedd5" font-family="Arial, sans-serif" font-size="18" font-weight="700">Fresh sample content</text>
  <g transform="translate(84 152)">
    <rect x="0" y="70" width="190" height="38" rx="19" fill="#ffedd5" opacity=".95"/>
    <path d="M30 74c13-54 117-87 164 0 11 19-7 43-31 43H54c-23 0-30-24-24-43z" fill="#fff7ed"/>
    <path d="M58 78c22-20 48-28 78-25M98 72c20-12 40-14 61-8" fill="none" stroke="#9a3412" stroke-width="11" stroke-linecap="round"/>
  </g>
  <g transform="translate(352 154)">
    <rect x="4" y="58" width="148" height="102" rx="18" fill="#fff7ed"/>
    <path d="M28 59c8-30 84-30 94 0" fill="#fed7aa"/>
    <path d="M42 96h76M36 124h88" stroke="#9a3412" stroke-width="10" stroke-linecap="round"/>
  </g>
  <path d="M0 244L640 116v244H0z" fill="url(#shine)"/>
</svg>
