<svg xmlns="http://www.w3.org/2000/svg" viewBox="0 0 640 360">
  <defs>
    <linearGradient id="bg" x1="0" y1="0" x2="1" y2="1">
      <stop offset="0" stop-color="#2a1b12"/>
      <stop offset=".5" stop-color="#8a6a4d"/>
      <stop offset="1" stop-color="#ffcd75"/>
    </linearGradient>
    <linearGradient id="glass" x1="0" y1="0" x2="1" y2="1">
      <stop offset="0" stop-color="#ffffff" stop-opacity=".26"/>
      <stop offset="1" stop-color="#ffffff" stop-opacity=".05"/>
    </linearGradient>
  </defs>
  <rect width="640" height="360" rx="36" fill="url(#bg)"/>
  <rect x="392" y="38" width="190" height="284" rx="28" fill="#fff7ed" opacity=".12"/>
  <text x="44" y="78" fill="#fffaf0" font-family="Arial, sans-serif" font-size="38" font-weight="800">Furniture</text>
  <text x="46" y="112" fill="#fde68a" font-family="Arial, sans-serif" font-size="18" font-weight="700">Room finder sample</text>
  <g transform="translate(88 170)">
    <rect x="0" y="54" width="260" height="64" rx="28" fill="#3b2a1f"/>
    <rect x="22" y="8" width="96" height="72" rx="22" fill="#f5e6d3"/>
    <rect x="138" y="8" width="96" height="72" rx="22" fill="#d6b99a"/>
    <rect x="28" y="112" width="22" height="42" rx="8" fill="#2a1b12"/>
    <rect x="210" y="112" width="22" height="42" rx="8" fill="#2a1b12"/>
  </g>
  <g transform="translate(420 138)">
    <rect width="122" height="160" rx="22" fill="url(#glass)" stroke="#fff7ed" stroke-opacity=".28"/>
    <circle cx="61" cy="68" r="42" fill="#ffcd75" opacity=".72"/>
    <rect x="28" y="126" width="66" height="12" rx="6" fill="#fff7ed" opacity=".85"/>
  </g>
</svg>
