<svg width="200" height="40" viewBox="0 0 200 40" fill="none" xmlns="http://www.w3.org/2000/svg">
<path fill-rule="evenodd" clip-rule="evenodd" d="M57.6973 3.6825H53.2411C43.7505 3.6825 38.4814 9.08739 38.4814 20.0621C38.4814 31.0368 43.704 36.3156 53.2295 36.3156H57.6857C67.2228 36.3156 72.4551 30.9902 72.4551 20.0621C72.4551 9.13395 67.1763 3.6825 57.6973 3.6825ZM57.6876 29.0657H53.2314C47.8129 29.0657 45.7817 26.5359 45.7817 20.0155C45.7817 13.4951 47.8129 10.9324 53.2431 10.9324H57.6993C63.1643 10.9324 65.1606 13.5417 65.1606 20.0155C65.1606 26.4894 63.1663 29.0657 57.6896 29.0657H57.6876Z" fill="#2F006D"/>
<path fill-rule="evenodd" clip-rule="evenodd" d="M20.8559 16.5933H13.9863C11.1791 16.5933 10.3081 15.2353 10.3081 13.693C10.3081 12.1507 11.3285 10.944 13.4063 10.944H29.6384V3.6825H13.6507C6.05165 3.6825 3 7.78952 3 13.4505C3 19.1115 5.18058 23.1603 14.2308 23.1603H21.1004C24.0124 23.1603 24.93 24.6095 24.93 26.212C24.93 27.8144 23.863 29.0677 21.727 29.0677H4.19505V36.3175H21.4826C29.1282 36.3175 32.1798 32.1523 32.1798 26.4098C32.1798 20.6674 30.0458 16.5953 20.8559 16.5953V16.5933Z" fill="#2F006D"/>
<path fill-rule="evenodd" clip-rule="evenodd" d="M104.457 29.0657H91.1367C88.085 29.0657 86.8783 27.5118 86.8783 25.0518V3.6825H79.417V25.6901C79.417 32.6974 83.1418 36.3156 90.2539 36.3156H104.457V29.0657Z" fill="#2F006D"/>
<path fill-rule="evenodd" clip-rule="evenodd" d="M140.177 31.8031C141.083 30.1871 141.554 28.152 141.554 25.6881V3.6825H134.093V25.0518C134.093 27.5234 132.886 29.0657 129.834 29.0657H122.385C119.333 29.0657 118.126 27.5234 118.126 25.0518V3.6825H110.665V25.6881C110.665 32.6955 114.39 36.3136 121.514 36.3136H130.762C135.109 36.3136 138.186 34.9343 139.915 32.2474C140.021 32.1116 140.093 31.9544 140.175 31.8031H140.177Z" fill="#2F006D"/>
<path fill-rule="evenodd" clip-rule="evenodd" d="M146.298 36.3156H153.984L161.799 11.5842C161.81 11.5609 161.818 11.5376 161.828 11.5144C161.835 11.4911 161.845 11.4678 161.857 11.4445C162.101 10.9227 162.472 10.62 163.087 10.62C163.702 10.62 164.235 11.0953 164.235 11.8965V28.2179C164.235 32.9167 167.531 36.0479 172.508 36.0479C177.484 36.0479 179.911 33.4967 181.302 29.2267L186.883 11.5008C187.069 10.9324 187.428 10.6084 188.09 10.6084C188.751 10.6084 189.238 11.0837 189.238 11.8849V36.3156H197V11.5124C197.002 6.81369 193.289 3.6825 188.264 3.6825C183.24 3.6825 180.908 6.23362 179.515 10.5036L173.947 28.2296C173.749 28.7398 173.309 29.122 172.682 29.122C172.055 29.122 171.522 28.6467 171.522 27.8454V11.5124C171.522 6.81369 168.272 3.6825 163.25 3.6825C158.227 3.6825 155.905 6.23362 154.456 10.5055L146.3 36.3156H146.298Z" fill="#2F006D"/>
</svg>
